<svg width="76" height="74" viewBox="0 0 76 74" fill="none" xmlns="http://www.w3.org/2000/svg">
<path d="M58.9268 38.9168C60.1721 40.7475 61.4175 42.5782 62.6629 44.4115C63.2535 42.2306 63.7953 39.612 64.0906 36.6226C64.4116 33.3577 64.3577 30.4585 64.1599 28.0562" fill="#231F20"/>
<path d="M41.0266 40.0491C39.7812 41.8798 38.5359 43.7105 37.2905 45.5438C36.6999 43.3629 36.1581 40.7443 35.8628 37.7549C35.5418 34.4901 35.5957 31.5908 35.7934 29.1885" fill="#231F20"/>
<path d="M13.5529 33.8637C13.9766 35.9596 14.6801 37.9397 15.9281 39.7034C21.3795 47.4228 32.5675 47.3301 37.8469 39.4949C40.0603 36.2094 42.9568 33.8972 46.8932 33.1608C53.6003 31.9069 60.1611 35.8669 62.3103 42.3941C63.5891 46.2718 63.2733 50.0697 61.653 53.7981C58.3456 61.4093 53.151 67.1872 45.4322 70.4778C40.1399 72.7334 34.5806 73.5213 28.9006 72.8029C15.8947 71.1576 7.42095 63.6597 2.50361 51.7897C1.17862 48.5918 0.485315 45.2187 0.141229 41.7736C0.125822 41.6294 0.205424 41.4415 0 41.3591V34.9143C0.318408 34.1753 0.249077 33.3694 0.382603 32.5995C2.96325 17.8534 11.1751 7.55152 25.1516 2.35551C42.9619 -4.26696 62.6133 3.50388 71.6006 20.2815C71.9422 20.9175 72.3402 21.5329 72.5097 22.2512C72.2785 22.2332 72.2452 22.0272 72.1579 21.8753C70.1396 18.3864 67.582 15.3507 64.5392 12.7166C58.8207 7.77038 52.1624 5.16723 44.6464 4.74238C42.1428 4.60076 39.6495 4.80418 37.1767 5.25735C29.5297 6.6529 23.1616 10.2499 18.2982 16.36C14.8368 20.7089 12.9186 25.6294 13.1549 31.2657C13.1908 32.136 13.1857 33.0346 13.558 33.8612L13.5529 33.8637Z" fill="#C6633D"/>
<path d="M13.5532 33.8636C13.1783 33.0371 13.186 32.1385 13.15 31.2682C12.9138 25.6319 14.8319 20.7088 18.2933 16.3625C23.1568 10.2524 29.5249 6.65539 37.1718 5.25983C39.6446 4.80924 42.138 4.60325 44.6416 4.74487C52.1575 5.16971 58.8159 7.77545 64.5344 12.7191C67.5798 15.3532 70.1347 18.3889 72.153 21.8778C72.2403 22.0271 72.2737 22.2357 72.5048 22.2537L72.4894 22.264C72.5125 22.3361 72.3841 22.5318 72.6229 22.4314C73.7271 24.6715 74.518 27.0275 75.0238 29.4607C77.8792 43.1794 74.4795 55.1343 64.7295 65.2019C61.3118 68.732 57.229 71.3506 52.6993 73.2586C52.4759 73.3538 52.2603 73.5212 51.9187 73.3976C53.5801 72.4733 55.1516 71.4922 56.605 70.3387C64.008 64.4784 68.4965 56.9032 69.7444 47.5205C71.0412 37.7568 68.499 29.059 61.8253 21.7825C55.1747 14.5318 46.7934 11.1279 36.9741 11.6583C30.095 12.0316 24.0093 14.5292 19.1022 19.4961C15.3558 23.2888 13.4171 27.8643 13.5634 33.256C13.5686 33.4594 13.5583 33.6654 13.5532 33.8714V33.8636Z" fill="#2A3F1F"/>
<path d="M44.4074 46.583C45.0144 46.583 45.5065 46.0896 45.5065 45.4809C45.5065 44.8723 45.0144 44.3789 44.4074 44.3789C43.8005 44.3789 43.3084 44.8723 43.3084 45.4809C43.3084 46.0896 43.8005 46.583 44.4074 46.583Z" fill="#231F20"/>
<path d="M55.7645 46.583C56.3715 46.583 56.8636 46.0896 56.8636 45.4809C56.8636 44.8723 56.3715 44.3789 55.7645 44.3789C55.1576 44.3789 54.6655 44.8723 54.6655 45.4809C54.6655 46.0896 55.1576 46.583 55.7645 46.583Z" fill="#231F20"/>
<path d="M33.2179 63.9198C29.415 63.5773 25.6404 63.1602 22.3638 60.9124C20.1812 59.4138 19.0873 57.2845 19.5161 55.1319C21.501 57.6964 24.1099 59.0199 27.2041 59.2877C28.9297 59.437 30.6758 59.3701 32.4142 59.3443C32.8405 59.3392 33.5851 59.5503 33.5903 58.8551C33.5954 58.1573 32.8764 58.3556 32.4296 58.3504C31.1817 58.3376 29.9312 58.3556 28.6832 58.3865C27.3043 58.42 25.9844 58.1341 24.6903 57.7042C21.727 56.7154 19.4519 54.0659 19.2696 51.249C21.8657 53.6591 26.6829 54.998 29.7257 54.259C30.0416 54.1818 30.4113 54.138 30.3805 53.6977C30.3497 53.278 29.9928 53.2162 29.6667 53.2033C29.1249 53.1827 28.5805 53.1982 28.0361 53.2033C26.1822 53.2111 24.3436 53.139 22.5924 52.4154C20.4123 51.5168 19.1361 49.4801 19.4648 47.3713C22.8902 49.5806 23.6298 49.8818 25.9433 49.9256C26.3747 49.9333 27.068 50.2423 27.104 49.4904C27.1297 48.9214 26.4749 48.9961 26.0794 48.96C24.662 48.8236 23.278 48.5712 22.0249 47.8554C20.5176 46.9954 19.5264 45.7801 19.3081 43.8207C20.913 44.9253 22.238 45.3733 23.4192 45.2806C23.7915 45.2523 24.2717 45.3141 24.2794 44.7862C24.2845 44.3845 23.8634 44.3794 23.5425 44.3047C19.9398 43.4859 19.8602 43.4035 19.2362 39.9146C19.1695 39.5413 19.1849 39.0933 18.6688 39.0752C18.1449 39.0572 18.0756 39.5027 18.0756 39.8786C18.0782 42.7572 16.6145 44.1811 13.7925 44.3124C13.4304 44.3279 12.9426 44.3382 13.0427 44.9047C13.1146 45.3141 13.5255 45.2651 13.8439 45.278C15.3435 45.3398 16.6659 44.8274 18.0063 43.782C17.7495 45.8522 16.7121 47.0675 15.156 47.9172C13.8875 48.6073 12.5035 48.839 11.086 48.9729C10.6932 49.0115 10.0461 48.9729 10.1154 49.5703C10.1847 50.1547 10.783 49.9436 11.1965 49.9436C13.7386 49.9436 15.9341 49.0398 17.8137 47.2143C18.1501 49.5754 16.8199 51.5889 14.5346 52.4824C12.447 53.3012 10.2746 53.2008 8.10225 53.1982C7.65545 53.1982 6.95957 53.0308 6.93646 53.7157C6.91335 54.4187 7.61693 54.2848 8.06116 54.2848C11.6407 54.2796 15.2253 54.2667 18.0011 51.249C18.1398 52.1296 17.8933 52.7167 17.5929 53.3038C15.9135 56.5815 13.0889 58.0646 9.57103 58.3324C7.89682 58.4612 6.20721 58.3427 4.52273 58.3453C4.14783 58.3453 3.68049 58.3324 3.67792 58.8628C3.67792 59.2748 4.07079 59.3237 4.40204 59.3392C9.30655 59.5915 14.1623 59.6713 17.675 55.3018C17.7058 55.2632 17.8573 55.3224 17.9498 55.3353C18.0474 58.2835 16.2037 60.7013 12.6396 62.1869C9.53251 63.4821 6.24572 63.8348 2.91528 63.943C2.40172 63.9584 1.56205 63.8297 1.55178 64.4734C1.53894 65.2561 2.39402 64.9472 2.85879 64.9343C8.35646 64.7618 13.6949 64.0897 17.8599 59.7048C18.1937 60.8326 17.8548 61.7518 17.5492 62.6478C16.5734 65.5085 14.7118 67.3649 11.6073 67.7408C11.1836 67.7923 10.5545 67.7537 10.5904 68.297C10.6341 68.9845 11.2992 68.794 11.7639 68.7605C12.0849 68.7373 12.4033 68.6472 12.7217 68.5802C15.0353 68.1013 16.653 66.6517 18.1372 64.3318C18.1372 65.4003 18.1321 66.026 18.1372 66.6517C18.1475 67.661 18.1578 68.6678 18.1706 69.6771C18.3272 69.7775 18.5147 69.8831 18.7304 69.9835C18.8999 70.0608 19.0616 70.1226 19.2106 70.1689C19.1875 69.4917 19.2285 68.7991 19.1592 68.1013C19.077 67.2619 19.0231 66.0569 19.1746 64.5506C19.8679 65.372 20.3532 66.0131 20.9079 66.5873C22.2534 67.9855 23.943 68.6472 25.8535 68.7862C26.2438 68.8146 26.688 68.7837 26.6931 68.2764C26.6957 67.8953 26.3157 67.8078 25.9742 67.7666C25.5428 67.7125 25.1088 67.6636 24.6877 67.5606C21.4112 66.7727 18.9204 63.0727 19.5059 59.7099C20.4251 60.6343 21.2854 61.5201 22.3638 62.1509C25.6994 64.1026 29.3688 64.7386 33.1409 64.8905C34.0114 64.9266 35.529 65.4879 35.6317 64.4451C35.7087 63.6546 34.0833 64.0048 33.2154 63.9249L33.2179 63.9198Z" fill="#2A3F1F"/>
<path d="M19.1777 64.543L19.206 69.8523L18.6667 69.2935L18.487 65.7969L19.1777 64.543Z" fill="#2A3F1F"/>
</svg>
