<?xml version="1.0" encoding="utf-8"?>
<!-- Generator: Adobe Illustrator 27.0.0, SVG Export Plug-In . SVG Version: 6.00 Build 0)  -->
<svg version="1.1" id="Layer_1" xmlns="http://www.w3.org/2000/svg" xmlns:xlink="http://www.w3.org/1999/xlink" x="0px" y="0px"
	 viewBox="0 0 76 74" style="enable-background:new 0 0 76 74;" xml:space="preserve">
<style type="text/css">
	.st0{fill:#241F20;}
	.st1{fill:#99302B;}
</style>
<path class="st0" d="M24.55,15.89c-0.3-0.56-0.6-1.19-0.86-1.89c-0.66-1.72-0.94-3.31-1.04-4.57c0.04-0.65,0.09-1.31,0.14-1.96
	c0.91,1.93,1.81,3.84,2.73,5.77c-0.19,0.45-0.37,0.93-0.56,1.43C24.81,15.09,24.67,15.5,24.55,15.89z"/>
<path class="st0" d="M42.29,12.24c0.05-0.63,0.08-1.33,0.05-2.07c-0.07-1.84-0.45-3.41-0.85-4.61c-0.31-0.58-0.59-1.16-0.9-1.74
	c-0.09,2.2-0.18,4.38-0.27,6.58c0.37,0.3,0.74,0.64,1.13,1.01C41.75,11.7,42.04,11.98,42.29,12.24z"/>
<path class="st1" d="M21.69,69.73c14.01-3.61,16.97-7.19,17.17-9.76c0.39-5.17-10.5-6.42-16.92-17.69
	c-0.35-0.61-7.65-13.87-1.58-24.58c0.68-1.19,3.76-6.6,10.05-8.12c5.76-1.39,12.7,1.02,15.8,6.03c2.86,4.61,1.67,10.16,1.19,12.44
	c-1.49,6.98-5.75,9.98-4.14,13.81c0.78,1.85,2.02,1.73,3.71,3.64c3.87,4.38,3.77,12.24,1.52,16.94
	C44.85,70.02,33.27,74.25,21.69,69.73z"/>
<circle class="st0" cx="28.87" cy="21.11" r="0.96"/>
<circle class="st0" cx="39.07" cy="19.01" r="0.96"/>
</svg>
